<svg width="27" height="41" viewBox="0 0 27 41" fill="none" xmlns="http://www.w3.org/2000/svg">
<rect x="4.13184" y="16.2093" width="18.1163" height="21.2946" fill="#927F9C"/>
<path d="M1.58936 37.5504C1.58936 36.9981 2.03707 36.5504 2.58936 36.5504H24.1087C24.661 36.5504 25.1087 36.9981 25.1087 37.5504V40C25.1087 40.5523 24.661 41 24.1087 41H2.58935C2.03707 41 1.58936 40.5523 1.58936 40V37.5504Z" fill="#927F9C"/>
<rect x="1.27148" y="20.9767" width="3.81395" height="9.53488" rx="1" fill="#927F9C"/>
<rect x="21.6123" y="20.9767" width="3.81395" height="9.53488" rx="1" fill="#927F9C"/>
<rect y="23.8372" width="1.58915" height="4.13178" rx="0.794574" fill="#927F9C"/>
<rect x="25.1084" y="23.8372" width="1.58915" height="4.13178" rx="0.794574" fill="#927F9C"/>
<rect x="3.17822" y="10.8062" width="20.0233" height="4.76744" fill="#927F9C"/>
<path d="M21.6125 9.85271C21.6125 14.3288 17.6661 15.0969 13.1901 15.0969C8.71398 15.0969 4.76758 14.3288 4.76758 9.85271C4.76758 5.37663 8.71398 1.58914 13.1901 1.58914C17.6661 1.58914 21.6125 5.37663 21.6125 9.85271Z" fill="#927F9C"/>
<rect x="10.4883" width="5.4031" height="2.86047" rx="1" fill="#927F9C"/>
<path d="M7.50684 26.79H18.9043V24.6738H7.50684V26.79ZM12.1367 31.3232H14.2637V20.1299H12.1367V31.3232Z" fill="#F5EEAF"/>
</svg>
