<svg width="38" height="35" viewBox="0 0 38 35" fill="none" xmlns="http://www.w3.org/2000/svg">
<path d="M0.293457 29.6756C0.293457 26.8959 2.57835 24.6425 5.39691 24.6425H32.19C35.0086 24.6425 37.2935 26.8959 37.2935 29.6756C37.2935 32.4553 35.0086 34.7087 32.19 34.7087H5.39691C2.57835 34.7087 0.293457 32.4553 0.293457 29.6756Z" fill="#7C6A6A"/>
<path d="M4.12118 20.8676C4.12118 18.0879 6.40607 15.8345 9.22463 15.8345H28.3626C31.1811 15.8345 33.466 18.0879 33.466 20.8676C33.466 23.6473 31.1811 25.9007 28.3626 25.9007H9.22462C6.40606 25.9007 4.12118 23.6473 4.12118 20.8676Z" fill="#7C6A6A"/>
<path d="M9.22464 13.318C9.22464 10.5383 11.5095 8.28486 14.3281 8.28486H23.2591C26.0777 8.28486 28.3626 10.5383 28.3626 13.318C28.3626 16.0977 26.0777 18.3511 23.2591 18.3511H14.3281C11.5095 18.3511 9.22464 16.0977 9.22464 13.318Z" fill="#7C6A6A"/>
<path d="M19.0399 1.50237C20.4853 -0.0113042 23.0629 0.758653 23.4137 2.80888L24.2689 7.8063C24.5841 9.64842 22.826 11.1751 21.013 10.6336L16.6347 9.32571C14.8218 8.78416 14.2181 6.55195 15.5168 5.19193L19.0399 1.50237Z" fill="#7C6A6A"/>
</svg>
